<svg width='24' height='24' viewBox='0 0 24 24' xmlns='http://www.w3.org/2000/svg' xmlns:xlink='http://www.w3.org/1999/xlink'><rect width='24' height='24' stroke='none' fill='#000000' opacity='0'/>
<g transform="matrix(1 0 0 1 12 12)" >
<path style="stroke: none; stroke-width: 1; stroke-dasharray: none; stroke-linecap: butt; stroke-dashoffset: 0; stroke-linejoin: miter; stroke-miterlimit: 4; fill: rgb(0,0,0); fill-rule: evenodd; opacity: 1;" transform=" translate(-12, -12.89)" d="M 3.246094 12.597656 C 2.453125 11.972656 2 11.257813 2 10.492188 C 2 9.515625 2.742188 8.613281 4 7.886719 C 4 10.285156 7.585938 12.234375 12 12.234375 C 16.414063 12.234375 19.996094 10.285156 19.996094 7.886719 C 21.253906 8.613281 22 9.515625 22 10.492188 C 22 11.257813 21.546875 11.972656 20.753906 12.597656 C 20.910156 12.882813 21 13.199219 21 13.539063 C 21 14.738281 19.878906 15.710938 18.5 15.710938 C 17.9375 15.710938 17.417969 15.550781 17 15.277344 C 17 16.714844 14.761719 17.886719 12 17.886719 C 9.238281 17.886719 7 16.714844 7 15.277344 C 6.582031 15.550781 6.0625 15.710938 5.5 15.710938 C 4.121094 15.710938 3 14.738281 3 13.539063 C 3 13.199219 3.089844 12.882813 3.246094 12.597656 Z" stroke-linecap="round" />
</g>
</svg>